<svg xmlns="http://www.w3.org/2000/svg" width="980" height="535" viewBox="0 0 980 535">
<title>Assembly-derived unscaled PSMC histories for P04 and P07</title>
<desc>Canonical VGP root /moosefs/erikg/vgp. P04 is a retained descriptive unscaled trajectory with raw validation pending. P07 is dashed and invalidated by exact-read reconstruction failure. Both PSMC trajectories are non-independent of same-pair pi.</desc>
<rect width="980" height="535" fill="white"/>
<text x="490" y="29" text-anchor="middle" font-family="sans-serif" font-size="21" font-weight="bold">Assembly-derived PSMC histories (unscaled)</text>
<text x="490" y="53" text-anchor="middle" font-family="sans-serif" font-size="13">Relative time and lambda only; nine absolute scenarios are generic sensitivities, not species calibrations</text>
<g font-family="sans-serif"><line x1="92.00" y1="78.0" x2="92.00" y2="425.0" stroke="#e4e4e4"/><text x="92.00" y="448" text-anchor="middle" font-size="12">0</text><line x1="114.70" y1="78.0" x2="114.70" y2="425.0" stroke="#e4e4e4"/><text x="114.70" y="448" text-anchor="middle" font-size="12">0.1</text><line x1="154.50" y1="78.0" x2="154.50" y2="425.0" stroke="#e4e4e4"/><text x="154.50" y="448" text-anchor="middle" font-size="12">0.3</text><line x1="257.11" y1="78.0" x2="257.11" y2="425.0" stroke="#e4e4e4"/><text x="257.11" y="448" text-anchor="middle" font-size="12">1</text><line x1="422.23" y1="78.0" x2="422.23" y2="425.0" stroke="#e4e4e4"/><text x="422.23" y="448" text-anchor="middle" font-size="12">3</text><line x1="663.20" y1="78.0" x2="663.20" y2="425.0" stroke="#e4e4e4"/><text x="663.20" y="448" text-anchor="middle" font-size="12">10</text><line x1="910.00" y1="78.0" x2="910.00" y2="425.0" stroke="#e4e4e4"/><text x="910.00" y="448" text-anchor="middle" font-size="12">30</text><line x1="92.0" y1="373.59" x2="910.0" y2="373.59" stroke="#e4e4e4"/><text x="78" y="377.59" text-anchor="end" font-size="12">1</text><line x1="92.0" y1="312.27" x2="910.0" y2="312.27" stroke="#e4e4e4"/><text x="78" y="316.27" text-anchor="end" font-size="12">3</text><line x1="92.0" y1="245.07" x2="910.0" y2="245.07" stroke="#e4e4e4"/><text x="78" y="249.07" text-anchor="end" font-size="12">10</text><line x1="92.0" y1="183.76" x2="910.0" y2="183.76" stroke="#e4e4e4"/><text x="78" y="187.76" text-anchor="end" font-size="12">30</text><line x1="92.0" y1="116.56" x2="910.0" y2="116.56" stroke="#e4e4e4"/><text x="78" y="120.56" text-anchor="end" font-size="12">100</text>
<line x1="92.0" y1="425.0" x2="910.0" y2="425.0" stroke="#222"/><line x1="92.0" y1="78.0" x2="92.0" y2="425.0" stroke="#222"/>
<polyline points="92.00,374.55 93.72,374.55 95.55,374.55 97.49,374.55 99.56,314.66 101.76,314.66 104.09,342.67 106.57,342.67 109.20,351.81 111.99,351.81 114.94,348.84 118.07,348.84 121.38,347.80 124.88,347.80 128.57,351.85 132.47,351.85 136.58,358.05 140.91,358.05 145.47,362.35 150.27,362.35 155.30,364.89 160.59,364.89 166.13,367.79 171.93,367.79 178.00,372.50 184.34,372.50 190.95,379.12 197.85,379.12 205.03,386.92 212.50,386.92 220.25,394.85 228.30,394.85 236.63,401.83 245.26,401.83 254.17,407.18 263.38,407.18 272.87,410.71 282.64,410.71 292.69,412.59 303.02,412.59 313.62,413.16 324.49,413.16 335.62,412.78 347.00,412.78 358.63,411.79 370.50,411.79 382.61,410.57 394.94,410.57 407.49,409.45 420.25,409.45 433.22,408.72 446.38,408.72 459.73,408.57 473.26,408.57 486.97,409.22 500.84,409.22 514.87,409.22 529.04,409.22 543.37,411.33 557.82,411.33 572.41,411.33 587.12,411.33 601.94,411.33 616.88,411.33" fill="none" stroke="#176b46" stroke-width="3"/>
<polyline points="92.00,268.59 94.25,268.59 96.68,268.59 99.32,268.59 102.17,288.58 105.26,288.58 108.59,190.81 112.18,190.81 116.06,179.80 120.23,179.80 124.71,188.52 129.53,188.52 134.69,229.61 140.21,229.61 146.11,282.87 152.41,282.87 159.12,335.12 166.26,335.12 173.83,366.79 181.86,366.79 190.34,383.54 199.30,383.54 208.73,393.83 218.65,393.83 229.05,397.70 239.94,397.70 251.31,393.79 263.17,393.79 275.51,382.79 288.33,382.79 301.61,366.63 315.34,366.63 329.53,349.49 344.14,349.49 359.17,335.64 374.61,335.64 390.44,324.65 406.64,324.65 423.19,309.25 440.09,309.25 457.31,280.92 474.83,280.92 492.64,241.26 510.72,241.26 529.06,198.71 547.64,198.71 566.44,160.37 585.46,160.37 604.67,128.29 624.06,128.29 643.63,103.58 663.35,103.58 683.21,90.56 703.22,90.56 723.35,101.46 743.59,101.46 763.95,101.46 784.40,101.46 804.94,153.08 825.57,153.08 846.27,153.08 867.05,153.08 887.89,153.08 908.79,153.08" fill="none" stroke="#b33b32" stroke-width="3" stroke-dasharray="8 5"/>
<rect x="638" y="75" width="280" height="54" rx="4" fill="white" fill-opacity="0.9"/>
<line x1="650" y1="91" x2="690" y2="91" stroke="#176b46" stroke-width="3"/><text x="700" y="96" font-size="13">P04 retained / raw pending</text>
<line x1="650" y1="115" x2="690" y2="115" stroke="#b33b32" stroke-width="3" stroke-dasharray="8 5"/><text x="700" y="120" font-size="13">P07 invalidated artifact</text>
<text x="500" y="478" text-anchor="middle" font-size="14">time / 2N0 (log1p axis)</text><text x="22" y="260" transform="rotate(-90 22 260)" text-anchor="middle" font-size="14">relative effective size lambda (log axis)</text>
<text x="25" y="510" font-size="12" fill="#555">PSMC and pi reuse each H1/H2 pair: the two outcomes are descriptive and non-independent.</text></g>
</svg>
