<svg xmlns="http://www.w3.org/2000/svg" width="920" height="485" viewBox="0 0 920 485">
<title>Observed VGP individual diversity and P07 method sensitivity</title>
<desc>Canonical VGP root /moosefs/erikg/vgp. P04 is retained with raw validation pending. Every P07 point is crossed because exact reads trigger a concrete reconstruction failure. Values are per-base individual estimates, not population means.</desc>
<rect width="920" height="485" fill="white"/>
<text x="460" y="30" text-anchor="middle" font-family="sans-serif" font-size="21" font-weight="bold">VGP diversity: measured values and validation status</text>
<text x="460" y="55" text-anchor="middle" font-family="sans-serif" font-size="13">Two inherited assembly estimates span 2.144254×; only P04 is retained, with raw validation pending</text>
<g font-family="sans-serif"><line x1="255.00" y1="85" x2="255.00" y2="388" stroke="#dedede"/><text x="255.00" y="414" text-anchor="middle" font-size="13">0.000</text><line x1="375.00" y1="85" x2="375.00" y2="388" stroke="#dedede"/><text x="375.00" y="414" text-anchor="middle" font-size="13">0.001</text><line x1="495.00" y1="85" x2="495.00" y2="388" stroke="#dedede"/><text x="495.00" y="414" text-anchor="middle" font-size="13">0.002</text><line x1="615.00" y1="85" x2="615.00" y2="388" stroke="#dedede"/><text x="615.00" y="414" text-anchor="middle" font-size="13">0.003</text><line x1="735.00" y1="85" x2="735.00" y2="388" stroke="#dedede"/><text x="735.00" y="414" text-anchor="middle" font-size="13">0.004</text><line x1="855.00" y1="85" x2="855.00" y2="388" stroke="#dedede"/><text x="855.00" y="414" text-anchor="middle" font-size="13">0.005</text><line x1="255.0" y1="388" x2="855.0" y2="388" stroke="#222" stroke-width="1.5"/><text x="18" y="117.0" font-size="15">P04 assembly pi (retained; raw pending)</text><circle cx="807.50" cy="112.0" r="7" fill="#176b46"/><text x="818.50" y="117.0" font-size="13" fill="#176b46">0.004604185</text><text x="18" y="173.0" font-size="15">P07 inherited assembly pi (invalidated)</text><path d="M505.67,161.0 L519.67,175.0 M505.67,175.0 L519.67,161.0" stroke="#b33b32" stroke-width="3"/><text x="523.67" y="173.0" font-size="13" fill="#b33b32">0.002147220</text><text x="18" y="229.0" font-size="15">P07 common-mask assembly pi</text><path d="M352.68,217.0 L366.68,231.0 M352.68,231.0 L366.68,217.0" stroke="#c46a27" stroke-width="3"/><text x="370.68" y="229.0" font-size="13" fill="#c46a27">0.000872374</text><text x="18" y="285.0" font-size="15">P07 common-mask read pi</text><path d="M293.68,273.0 L307.68,287.0 M293.68,287.0 L307.68,273.0" stroke="#365f91" stroke-width="3"/><text x="311.68" y="285.0" font-size="13" fill="#365f91">0.000380645</text><text x="18" y="341.0" font-size="15">P07 k-mer model heterozygosity</text><path d="M567.83,329.0 L581.83,343.0 M567.83,343.0 L581.83,329.0" stroke="#78569b" stroke-width="3"/><text x="585.83" y="341.0" font-size="13" fill="#78569b">0.002665267</text>
<text x="555" y="442" text-anchor="middle" font-size="15">heterozygosity / callable base</text>
<text x="18" y="468" font-size="12" fill="#555">Circle = retained assembly observation; crosses = P07 sensitivity values excluded from quantitative synthesis.</text></g>
</svg>
