<svg xmlns="http://www.w3.org/2000/svg" width="1200" height="620" viewBox="0 0 1200 620" role="img">
<title>VGP Freeze 1 closed-world reconciliation</title>
<desc>Flow from 716 catalog rows to 569 linked entries and zero eligible pairs, estimates, or annotation subsets.</desc>
<rect width="1200" height="620" fill="#ffffff"/><text x="60" y="65" font-family="sans-serif" font-size="30" font-weight="bold">VGP Freeze 1: audited evidence, not biological zeroes</text>
<g font-family="sans-serif" text-anchor="middle"><rect x="60" y="140" width="240" height="150" rx="12" fill="#dbeafe" stroke="#1d4ed8" stroke-width="3"/><text x="180" y="195" font-size="34" font-weight="bold">716</text><text x="180" y="230" font-size="20">catalog rows</text><text x="180" y="260" font-size="16">581 released · 135 unreleased</text>
<rect x="365" y="140" width="240" height="150" rx="12" fill="#e0f2fe" stroke="#0369a1" stroke-width="3"/><text x="485" y="195" font-size="34" font-weight="bold">569</text><text x="485" y="230" font-size="20">linked entries</text><text x="485" y="260" font-size="16">566 non-self · 3 self-links</text>
<rect x="670" y="140" width="210" height="150" rx="12" fill="#fef3c7" stroke="#b45309" stroke-width="3"/><text x="775" y="195" font-size="34" font-weight="bold">0</text><text x="775" y="230" font-size="20">eligible pairs</text><text x="775" y="260" font-size="16">mirror verified objects: 0</text>
<rect x="945" y="140" width="195" height="150" rx="12" fill="#fee2e2" stroke="#b91c1c" stroke-width="3"/><text x="1042" y="195" font-size="34" font-weight="bold">0</text><text x="1042" y="230" font-size="20">core estimates</text><text x="1042" y="260" font-size="16">0 PSMC · 0 annotation</text>
<path d="M300 215 H365 M605 215 H670 M880 215 H945" stroke="#334155" stroke-width="4" marker-end="url(#a)"/></g>
<defs><marker id="a" markerWidth="10" markerHeight="10" refX="8" refY="3" orient="auto"><path d="M0,0 L0,6 L9,3 z" fill="#334155"/></marker></defs>
<rect x="90" y="380" width="1020" height="145" rx="12" fill="#f8fafc" stroke="#64748b" stroke-width="2"/><text x="600" y="425" text-anchor="middle" font-family="sans-serif" font-size="22" font-weight="bold">Interpretation boundary</text><text x="600" y="463" text-anchor="middle" font-family="sans-serif" font-size="19">0 eligible pairs means NOT ESTIMABLE—not low diversity, no diversity, or a compressed range.</text><text x="600" y="498" text-anchor="middle" font-family="sans-serif" font-size="17">Same-pair PSMC is descriptive and non-independent; annotation is optional after core acceptance.</text>
</svg>
